<?xml version="1.0" standalone="no"?>
<!DOCTYPE svg PUBLIC "-//W3C//DTD SVG 20010904//EN"
 "http://www.w3.org/TR/2001/REC-SVG-20010904/DTD/svg10.dtd">
<svg version="1.0" xmlns="http://www.w3.org/2000/svg"
 width="512.000000pt" height="512.000000pt" viewBox="0 0 512.000000 512.000000"
 preserveAspectRatio="xMidYMid meet">
<metadata>
Created by potrace 1.14, written by Peter Selinger 2001-2017
</metadata>
<g transform="translate(0.000000,512.000000) scale(0.100000,-0.100000)"
fill="#000000" stroke="none">
<path d="M2784 3833 c-7 -7 -20 -36 -29 -65 -10 -29 -21 -57 -25 -63 -4 -5
-13 -28 -19 -50 -7 -22 -16 -49 -21 -60 -5 -11 -31 -81 -59 -155 -108 -295
-272 -736 -280 -755 -5 -11 -18 -47 -30 -80 -13 -33 -29 -76 -36 -95 -7 -19
-37 -98 -65 -175 -28 -77 -64 -174 -80 -215 -16 -41 -69 -183 -118 -315 -50
-132 -97 -257 -106 -277 l-16 -38 195 -1 c239 -1 233 -1 244 0 10 1 46 90 96
236 15 44 31 85 35 90 3 6 13 30 20 55 7 25 17 50 21 55 3 6 10 21 14 35 11
38 226 614 233 625 4 6 7 15 8 20 2 10 123 340 149 405 8 19 30 80 50 135 20
55 47 127 60 160 13 33 49 130 81 215 31 85 68 184 81 220 36 93 37 100 22
101 -8 0 -104 1 -213 2 -147 1 -203 -1 -212 -10z"/>
<path d="M1660 3506 c-229 -116 -471 -236 -473 -234 -2 2 -11 -3 -19 -9 -8 -7
-147 -78 -309 -158 -162 -80 -319 -159 -349 -175 -30 -16 -126 -64 -212 -106
l-158 -78 0 -113 c0 -113 0 -114 26 -123 14 -6 51 -22 82 -36 31 -15 95 -43
142 -64 47 -21 105 -46 130 -57 25 -11 74 -33 110 -48 72 -31 142 -62 238
-106 35 -16 65 -29 67 -29 2 0 43 -18 90 -40 47 -22 88 -40 91 -40 2 0 43 -18
90 -40 47 -22 88 -40 90 -40 4 0 44 -17 144 -63 25 -11 47 -23 50 -26 3 -3 14
-8 25 -9 17 -3 160 -67 208 -93 16 -9 17 3 17 180 0 139 -3 191 -12 198 -7 6
-44 22 -83 37 -38 15 -83 34 -100 41 -42 18 -215 90 -460 190 -116 47 -246
101 -290 119 -44 18 -95 39 -113 46 -18 7 -31 17 -29 23 1 5 57 34 122 63 66
30 129 58 140 63 56 26 160 74 250 116 55 26 147 69 205 95 58 26 134 61 170
78 36 16 95 44 133 60 l67 31 0 190 c0 105 -3 191 -7 191 -5 -1 -37 -16 -73
-34z"/>
<path d="M3380 3358 c0 -101 4 -188 8 -194 4 -6 77 -43 162 -81 85 -39 198
-91 250 -116 52 -24 221 -101 375 -172 154 -70 286 -133 293 -140 10 -9 4 -14
-30 -25 -24 -8 -47 -17 -53 -21 -10 -7 -282 -118 -300 -123 -5 -1 -30 -12 -54
-24 -25 -12 -49 -22 -54 -22 -9 0 -23 -6 -119 -49 -26 -11 -50 -21 -53 -21 -3
0 -24 -9 -48 -19 -23 -11 -114 -48 -202 -83 -88 -35 -163 -67 -167 -73 -9 -12
-11 -375 -2 -375 7 0 90 35 181 76 28 13 150 67 270 119 120 53 227 100 238
105 76 35 177 80 180 80 3 0 28 11 57 24 105 49 283 128 293 131 6 1 37 14 70
29 132 61 153 70 225 101 l75 32 3 109 c1 60 -1 114 -5 119 -7 9 -1576 795
-1588 795 -3 0 -5 -82 -5 -182z"/>
</g>
</svg>
